<?xml version="1.0" standalone="no"?>
<!DOCTYPE svg PUBLIC "-//W3C//DTD SVG 20010904//EN"
 "http://www.w3.org/TR/2001/REC-SVG-20010904/DTD/svg10.dtd">
<svg version="1.0" xmlns="http://www.w3.org/2000/svg"
 width="480.000000pt" height="480.000000pt" viewBox="0 0 480.000000 480.000000"
 preserveAspectRatio="xMidYMid meet">
<metadata>
Created by potrace 1.11, written by Peter Selinger 2001-2013
</metadata>
<g transform="translate(0.000000,480.000000) scale(0.100000,-0.100000)"
fill="#000000" stroke="none">
<path d="M2230 4020 c-449 -55 -765 -248 -904 -552 -57 -125 -71 -194 -70
-363 1 -177 19 -258 86 -388 53 -102 177 -230 292 -302 111 -69 293 -145 492
-205 587 -178 686 -220 795 -332 69 -71 92 -128 97 -239 4 -89 2 -102 -23
-158 -51 -112 -164 -191 -333 -233 -124 -31 -366 -31 -505 0 -294 65 -580 210
-817 415 l-44 38 -119 -236 c-137 -274 -136 -235 -2 -340 267 -209 624 -359
965 -406 121 -17 409 -17 524 -1 292 42 533 146 698 301 131 123 205 242 249
406 32 114 32 354 1 468 -62 228 -214 403 -460 530 -146 75 -244 112 -548 206
-483 149 -620 224 -696 379 -30 60 -33 75 -33 157 0 107 17 147 90 214 52 48
120 82 215 108 101 27 341 24 489 -5 171 -35 346 -97 531 -189 91 -45 168 -79
171 -75 17 18 220 465 216 475 -6 17 -178 111 -285 157 -172 74 -354 127 -538
156 -118 18 -429 26 -534 14z"/>
</g>
</svg>
